REM DIRINDEX 1\2\4,1\2\5,1\2\6,1\3\7,1\3\8
REM DIRNAME folder01,folder02,folder03,folder04,folder05,folder06,folder07,folder08
TITLE ""
FILE "045_Proficiency Test10.mp3" MP3
  TRACK 01 AUDIO
    TITLE "0:"
    INDEX 01 00:00:00
  TRACK 02 AUDIO
    TITLE "8:cjc128_4025"
    INDEX 01 00:00:25
  TRACK 03 AUDIO
    TITLE "0:"
    INDEX 01 00:02:47
  TRACK 04 AUDIO
    TITLE "8:cjc128_4026"
    INDEX 01 00:02:71
  TRACK 05 AUDIO
    TITLE "0:"
    INDEX 01 00:04:46
  TRACK 06 AUDIO
    TITLE "7:cjc128_4027"
    INDEX 01 00:05:28
  TRACK 07 AUDIO
    TITLE "0:"
    INDEX 01 00:11:40
  TRACK 08 AUDIO
    TITLE "8:cjc128_4028"
    INDEX 01 00:18:29
  TRACK 09 AUDIO
    TITLE "0:"
    INDEX 01 00:20:28
  TRACK 10 AUDIO
    TITLE "7:cjc128_4029"
    INDEX 01 00:21:13
  TRACK 11 AUDIO
    TITLE "0:"
    INDEX 01 00:27:61
  TRACK 12 AUDIO
    TITLE "8:cjc128_4030"
    INDEX 01 00:35:06
  TRACK 13 AUDIO
    TITLE "0:"
    INDEX 01 00:37:01
  TRACK 14 AUDIO
    TITLE "7:cjc128_4031"
    INDEX 01 00:37:59
  TRACK 15 AUDIO
    TITLE "0:"
    INDEX 01 00:47:01
